<svg height="1em" viewBox="0 0 60 60" width="1em" xmlns="http://www.w3.org/2000/svg"
     id="fi_3130313"
>
    <g id="Page-1" fill="none" fill-rule="evenodd">
        <g id="010---Bath-and-Shower">
            <g fill-rule="nonzero">
                <path
                        id="Shape"
                        d="m56 37v4c.0047869 3.1840629-1.257958 6.239092-3.509433 8.490567s-5.3065041 3.5142199-8.490567 3.509433h-28c-3.1840629.0047869-6.23909195-1.257958-8.49056699-3.509433s-3.51421988-5.3065041-3.50943301-8.490567l-.00001356-10h11.39001356c2.3993256.0012685 4.7177538.8675724 6.53 2.44 2.1299031 1.8160915 4.7365492 2.982314 7.51 3.36v.01c.8506255.1282663 1.70976.1917821 2.57.19h2v9c.0032948 1.1032019.8967981 1.9967052 2 2h11.4c1.1032019-.0032948 1.9967052-.8967981 2-2v-9z"
                        fill="#00bcd4"
                ></path>
                <path
                        id="Shape"
                        d="m26.43 36.8v.01c.8506255.1282663 1.70976.1917821 2.57.19h2v9c.0032948 1.1032019.8967981 1.9967052 2 2h3c-1.1032019-.0032948-1.9967052-.8967981-2-2v-9h-2c-.86024.0017821-1.7193745-.0617337-2.57-.19v-.01c-2.7734508-.377686-5.3800969-1.5439085-7.51-3.36-1.8122462-1.5724276-4.1306744-2.4387315-6.53-2.44h-3c2.3993256.0012685 4.7177538.8675724 6.53 2.44 2.1299031 1.8160915 4.7365492 2.982314 7.51 3.36z"
                        fill="#00838f"
                ></path>
                <path
                        id="Shape"
                        d="m53 37v4c.0047869 3.1840629-1.257958 6.239092-3.509433 8.490567s-5.3065041 3.5142199-8.490567 3.5094466l3-.0000136c3.1840629.0047869 6.239092-1.257958 8.490567-3.509433s3.5142199-5.3065041 3.509433-8.490567l.0000136-4z"
                        fill="#00838f"
                ></path>
                <path
                        id="Shape"
                        d="m34 34.5.0000832 2.5000365-2.0000832-.0000365c-.86024.0017821-1.7193745-.0617337-2.57-.19v-.01c-2.7734508-.377686-5.3800969-1.5439085-7.51-3.36-1.8122462-1.5724276-4.1306744-2.4387315-6.53-2.44h-13.39c-.55228475 0-1-.4477153-1-1v-1c0-1.6568542 1.34314575-3 3-3h11c3.6785918-.0629535 7.2568523 1.2007972 10.08 3.56.4014494.3507481.8331309.6653067 1.29.94 1.5399889.9612019 3.3147643 1.4801421 5.13 1.5 1.0110379-.0025707 1.9235122.6057455 2.31 1.54.1280769.3037132.1927331.6303973.19.96z"
                        fill="#f5f5f5"
                ></path>
                <path
                        id="Shape"
                        d="m28.5 31.9999919c1.0110379-.0025626 1.9235122.6057536 2.31 1.5400081.1280769.3037132.1927331.6303973.19.96v2.464c.333.019.666.036 1 .036h2v-2.5c.0027331-.3296027-.0619231-.6562868-.19-.96-.3864878-.9342545-1.2989621-1.5425707-2.31-1.54"
                        fill="#cfd8dc"
                ></path>
                <path
                        id="Shape"
                        d="m59 35v1c0 .5522847-.4477153 1-1 1h-8.6v-2.5c-.0006051-.8581091-.1705166-1.7076666-.5-2.5h7.1c1.6568542 0 3 1.3431458 3 3z"
                        fill="#f5f5f5"
                ></path>
                <path
                        id="Shape"
                        d="m56 32h-3c1.6568542 0 3 1.3431458 3 3v1c0 .5522847-.4477153 1-1 1h3c.5522847 0 1-.4477153 1-1v-1c0-1.6568542-1.3431458-3-3-3z"
                        fill="#cfd8dc"
                ></path>
                <path
                        id="Shape"
                        d="m17.84 53c-1.6656788 1.1809873-2.6976776 3.0606993-2.8 5.1-.0511593.5090925-.4783498.8974475-.99.9h-7.05c-.55228475 0-1-.4477153-1-1v-1c.0032948-1.1032019.89679813-1.9967052 2-2h2v-3.6c1.8236083 1.0538392 3.8937974 1.6058896 6 1.6z"
                        fill="#ffdc00"
                ></path>
                <path
                        id="Shape"
                        d="m16 53c-2.1062026.0058896-4.1763917-.5461608-6-1.6v1.215c.9798589.2538348 1.9877983.383187 3 .385h1.84c-1.6656788 1.1809873-2.6976776 3.0606993-2.8 5.1-.0511593.5090925-.4783498.8974475-.99.9h3c.5116502-.0025525.9388407-.3909075.99-.9.1023224-2.0393007 1.1343212-3.9190127 2.8-5.1z"
                        fill="#fec108"
                ></path>
                <path
                        id="Shape"
                        d="m54 57v1c0 .5522847-.4477153 1-1 1h-7.05c-.5116502-.0025525-.9388407-.3909075-.99-.9-.1023224-2.0393007-1.1343212-3.9190127-2.8-5.1h1.84c2.1062026.0058896 4.1763917-.5461608 6-1.6v3.6h2c1.1032019.0032948 1.9967052.8967981 2 2z"
                        fill="#ffdc00"
                ></path>
                <path
                        id="Shape"
                        d="m52 55h-2v-3.6c-.9396279.5404996-1.9490689.9493232-3 1.215v2.385h2c1.1032019.0032948 1.9967052.8967981 2 2v1c0 .5522847-.4477153 1-1 1h3c.5522847 0 1-.4477153 1-1v-1c-.0032948-1.1032019-.8967981-1.9967052-2-2z"
                        fill="#fec108"
                ></path>
                <path
                        id="Shape"
                        d="m40 48h-4c-1.1032019-.0032948-1.9967052-.8967981-2-2 0-12.516.077-11.822-.19-12.46-.3864878-.9342545-1.2989621-1.5425707-2.31-1.54-1.8152357-.0198579-3.5900111-.5387981-5.13-1.5 1.7129939-2.1774425 4.6161468-3.032653 7.2360087-2.1315827s4.3827714 3.3611174 4.3939913 6.1315827v11.5c.0032948 1.1032019.8967981 1.9967052 2 2z"
                        fill="#ad1457"
                ></path>
                <path
                        id="Shape"
                        d="m49.5 34.5v11.5c-.0032948 1.1032019-.8967981 1.9967052-2 2h-7.4c-1.1032019-.0032948-1.9967052-.8967981-2-2v-11.5c.0009145-3.4335303-2.6726746-6.2736709-6.1-6.48v-.02h11c3.5898509 0 6.5 2.9101491 6.5 6.5z"
                        fill="#e91e63"
                ></path>
                <path
                        id="Shape"
                        d="m49 32c-1.0131435-2.4189983-3.3774079-3.9951746-6-4h-3c3.5898509 0 6.5 2.9101491 6.5 6.5v11.5c-.0032948 1.1032019-.8967981 1.9967052-2 2h3c1.1032019-.0032948 1.9967052-.8967981 2-2v-11.5c-.0006051-.8581091-.1705166-1.7076666-.5-2.5z"
                        fill="#ad1457"
                ></path>
                <path
                        id="Shape"
                        d="m24.83 6.01-3.24-3.25c-1.1234925-1.13261286-2.6546937-1.76671027-4.25-1.76h-5.34c-3.3137085 0-6 2.6862915-6 6v19h4v-19c.0032948-1.10320187.8967981-1.9967052 2-2h5.34c.5332885-.00165132 1.0449024.21092066 1.42.59l2.09 2.09"
                        fill="#7f8e94"
                ></path>
                <path
                        id="Shape"
                        d="m30.99 12.07c-.0307904.5236573-.465442.9319663-.99.93h-10c-.5522847 0-1-.4477153-1-1-.0036402-1.6331339.6655034-3.19567464 1.85-4.32 1.7438275-1.66251576 4.3129859-2.12068253 6.5240024-1.16344757 2.2110166.95723496 3.6349999 3.14418799 3.6159976 5.55344757z"
                        fill="#9e9e9e"
                ></path>
                <path
                        id="Shape"
                        d="m23.5 6.212c2.6295293.74179119 4.4569944 3.12604299 4.49 5.858-.0307904.5236573-.465442.9319663-.99.93h3c.524558.0019663.9592096-.4063427.99-.93.0114527-1.8609697-.8402818-3.62215716-2.3061876-4.76865599-1.4659058-1.14649882-3.3804212-1.54882162-5.1838124-1.08934401z"
                        fill="#707070"
                ></path>
            </g>
            <path
                    id="Shape"
                    d="m31 12v.21c.0016524-.0468895-.0016999-.0938214-.01-.14.0082028-.0223745.0116098-.0462237.01-.07z"
                    stroke="#000" stroke-linecap="round" stroke-linejoin="round" stroke-width="2"
            ></path>
            <path
                    id="Shape"
                    d="m16 50c-4.9682782-.0055111-8.99448887-4.0317218-9-9 0-.5522847.44771525-1 1-1s1 .4477153 1 1c.00440864 3.8641657 3.1358343 6.9955914 7 7 .5522847 0 1 .4477153 1 1s-.4477153 1-1 1z"
                    fill="#f5f5f5" fill-rule="nonzero"
            ></path>
            <path
                    id="Shape"
                    d="m57 41v-3h1c1.1045695 0 2-.8954305 2-2v-1c0-2.209139-1.790861-4-4-4h-6.49c-1.2895414-2.4573898-3.8348106-3.9976435-6.61-4h-11c-2.1197487-.1060767-4.1859789.6865047-5.691 2.183-2.851-2.136-5.585-4.183-11.209-4.183h-4v-18c0-.55228475.4477153-1 1-1h5.34c.2684703-.00060172.5257205.10763822.713.3l1.421 1.421c-.9520604 1.22351472-1.47056 2.7287112-1.474 4.279 0 1.1045695.8954305 2 2 2h10c1.0222706-.0117167 1.8776675-.7790078 2-1.794.053569-3.57304508-2.5510529-6.63166791-6.087-7.148-.223-.028-.446-.042-.669-.049l-2.944-2.956c-1.3124223-1.31985286-3.0987034-2.05921477-4.96-2.053h-5.34c-3.86416566.00440864-6.99559136 3.13583434-7 7v18h-1c-2.209139 0-4 1.790861-4 4v1c0 1.1045695.8954305 2 2 2h1v9c.00445772 4.4302024 2.26608201 8.5527665 6 10.937v2.063h-1c-1.65685425 0-3 1.3431458-3 3v1h-4c-.55228475 0-1 .4477153-1 1s.44771525 1 1 1h58c.5522847 0 1-.4477153 1-1s-.4477153-1-1-1h-4v-1c0-1.6568542-1.3431458-3-3-3h-1v-2.063c3.733918-2.3842335 5.9955423-6.5067976 6-10.937zm1-6v1h-7.6v-1.5c-.0001281-.5038882-.0513907-1.0064628-.153-1.5h5.753c1.1045695 0 2 .8954305 2 2zm-10.023-2.617c.2794687.6707932.4232377 1.3903184.423 2.117v11.5c0 .5522847-.4477153 1-1 1h-7.4c-.5522847 0-1-.4477153-1-1v-11.5c.0013767-2.0891142-.8714411-4.0835047-2.407-5.5000001l6.307.0000001c2.2199908-.0003028 4.2225054 1.3340494 5.077 3.383zm-12.977 2.117c.0033906-.4611785-.0874669-.9181883-.267-1.343-.5377088-1.3032003-1.8072287-2.154414-3.217-2.157-1.2039587-.0145094-2.3923848-.2737653-3.493-.762 1.645622-1.342676 3.9172539-1.6178626 5.8358754-.7069609 1.9186216.9109018 3.1413137 2.8450846 3.1411246 4.9689609v11.5c.0033144.3414397.0655622.679743.184 1h-1.184c-.5522847 0-1-.4477153-1-1zm-5-22.5h-10c.009847-2.75460625 2.2384102-4.98629389 4.993-5 2.7484089.03389531 4.9692596 2.25164126 5.007 5zm-23-5c.00330612-2.76005315 2.23994685-4.99669388 5-5h5.34c1.3290696-.00397227 2.6044948.52391406 3.542 1.466l1.9 1.905c-.6685847.22211964-1.2997241.54409513-1.872.955l-1.443-1.443c-.5624696-.56681115-1.3284741-.88480922-2.127-.883h-5.34c-1.6568542 0-3 1.34314575-3 3v18h-2zm-5 22c0-1.1045695.8954305-2 2-2h11c3.4369896-.065317 6.7822664 1.1109622 9.422 3.313.4415651.386451.9164114.7331323 1.419 1.036 1.6958344 1.0574307 3.6496231 1.6285541 5.648 1.651h.011c.8284271 0 1.5.6715729 1.5 1.5v1.5h-1c-3.4376039.0613514-6.782698-1.1151989-9.425-3.315-1.9938379-1.7304986-4.5449217-2.6838263-7.185-2.685h-13.39zm3 12v-9h10.39c2.1576763.0010198 4.2427183.7795822 5.873 2.193 3.0043144 2.5196255 6.8165049 3.8713074 10.737 3.807h1v8c0 1.6568542 1.3431458 3 3 3h11.4c1.6568542 0 3-1.3431458 3-3v-8h4.6v3c-.0071635 6.0721626-4.9278374 10.9928365-11 11h-28c-6.07216255-.0071635-10.9928365-4.9278374-11-11zm13.182 13h23.636c1.2339661.979012 2.0025765 2.4292204 2.12 4h-27.877c.1182715-1.5707662.8871388-3.0207752 2.121-4zm-11.182 4v-1c0-.5522847.44771525-1 1-1h2c.5522847 0 1-.4477153 1-1v-2c1.4206202.5891463 2.9350932.9196753 4.472.976-.8275432 1.1888963-1.3188227 2.5791275-1.422 4.024zm43-2h2c.5522847 0 1 .4477153 1 1v1h-7.045c-.1055443-1.4460947-.59846-2.8371047-1.427-4.027 1.5367232-.0553712 3.0511895-.3848828 4.472-.973v2c0 .5522847.4477153 1 1 1z"
                    fill="#000" fill-rule="nonzero"
            ></path>
            <path
                    id="Shape"
                    d="m24 17v5c0 .5522847.4477153 1 1 1s1-.4477153 1-1v-5c0-.5522847-.4477153-1-1-1s-1 .4477153-1 1z"
                    fill="#000" fill-rule="nonzero"
            ></path>
            <path
                    id="Shape"
                    d="m20.071 16.628-2 5c-.2054499.5130725.0439275 1.09555.557 1.301.5130725.2054499 1.0955501-.0439275 1.301-.557l2-5c.2054499-.5130725-.0439275-1.09555-.557-1.301-.5130725-.2054499-1.0955501.0439275-1.301.557z"
                    fill="#000" fill-rule="nonzero"
            ></path>
            <path
                    id="Shape"
                    d="m29.929 16.628c-.2054499-.5130725-.7879275-.7624499-1.301-.557s-.7624499.7879275-.557 1.301l2 5c.1329028.3318997.4327765.5676849.7866615.6185376s.7080177-.0909529.929-.372c.2209822-.2810471.2752413-.6586379.1423385-.9905376z"
                    fill="#000" fill-rule="nonzero"
            ></path>
        </g>
    </g>
</svg>